<?xml version="1.0" standalone="no"?>
<!DOCTYPE svg PUBLIC "-//W3C//DTD SVG 20010904//EN"
 "http://www.w3.org/TR/2001/REC-SVG-20010904/DTD/svg10.dtd">
<svg version="1.0" xmlns="http://www.w3.org/2000/svg"
 width="275.000000pt" height="275.000000pt" viewBox="0 0 275.000000 275.000000"
 preserveAspectRatio="xMidYMid meet">
<metadata>
Created by potrace 1.11, written by Peter Selinger 2001-2013
</metadata>
<g transform="translate(0.000000,275.000000) scale(0.100000,-0.100000)"
fill="#000000" stroke="none">
<path d="M1125 2733 c-252 -45 -522 -184 -714 -367 -192 -184 -349 -481 -395
-751 -21 -118 -21 -362 0 -480 46 -270 203 -567 395 -751 196 -186 465 -323
724 -368 118 -21 362 -21 480 0 259 45 528 182 724 368 192 184 349 481 395
751 21 118 21 362 0 480 -46 270 -203 567 -395 751 -196 186 -465 323 -724
368 -114 20 -378 19 -490 -1z m90 -718 c41 -9 91 -23 111 -31 35 -15 41 -14
123 13 82 27 94 28 271 27 111 0 203 -5 230 -12 100 -27 471 -24 543 4 15 5
17 -4 17 -89 l0 -96 -57 -8 c-99 -14 -429 -10 -518 7 -118 22 -355 20 -422 -3
l-53 -19 0 -428 0 -429 -45 -20 c-45 -20 -46 -20 -90 -1 l-45 19 0 424 c0 328
-3 427 -12 434 -54 42 -251 54 -429 27 -134 -20 -428 -26 -551 -11 l-68 9 0
95 c0 79 2 94 15 90 8 -4 63 -11 122 -18 121 -13 330 -6 458 16 112 18 310 18
400 0z m-873 -372 l58 -6 2 -416 3 -416 53 -3 c30 -2 103 6 163 18 257 49 458
34 672 -51 l78 -31 59 26 c33 15 104 39 158 53 129 34 360 38 492 9 47 -10
121 -19 165 -20 l80 -1 3 416 2 416 68 7 c37 4 77 9 90 13 l22 5 0 -479 c0
-543 8 -492 -85 -535 -43 -20 -66 -23 -165 -23 -76 1 -144 7 -200 20 -108 25
-305 26 -401 2 -93 -23 -166 -52 -234 -92 l-58 -35 -47 30 c-62 40 -150 75
-241 97 -98 23 -296 22 -399 -1 -176 -40 -330 -31 -416 26 l-44 30 0 480 0
481 33 -7 c17 -4 58 -9 89 -13z m378 -183 c0 -100 4 -160 10 -160 5 0 58 72
117 160 l107 161 70 -3 71 -3 3 -287 2 -288 -75 0 -75 0 -2 163 -3 162 -109
-162 -109 -163 -74 0 -73 0 0 290 0 290 70 0 70 0 0 -160z m1060 0 c0 -88 3
-160 8 -160 4 0 55 71 113 158 l106 157 72 3 71 3 0 -291 0 -290 -70 0 -70 0
0 160 c0 88 -3 160 -7 160 -5 0 -55 -72 -113 -159 l-105 -160 -75 0 -75 -1 2
287 c2 159 3 289 3 291 0 1 32 2 70 2 l70 0 0 -160z"/>
</g>
</svg>
